<svg width="50" height="50" viewBox="0 0 50 50" fill="none" xmlns="http://www.w3.org/2000/svg">
<g id="hamburger 1">
<path id="Vector" d="M7.29167 14.5833C6.71637 14.5833 6.25 14.117 6.25 13.5417C6.25 12.9664 6.71637 12.5 7.29167 12.5H42.7083C43.2835 12.5 43.75 12.9664 43.75 13.5417C43.75 14.117 43.2835 14.5833 42.7083 14.5833H7.29167ZM7.29167 25C6.71637 25 6.25 24.5335 6.25 23.9583C6.25 23.3831 6.71637 22.9167 7.29167 22.9167H42.7083C43.2835 22.9167 43.75 23.3831 43.75 23.9583C43.75 24.5335 43.2835 25 42.7083 25H7.29167ZM7.29167 35.4167C6.71637 35.4167 6.25 34.9502 6.25 34.375C6.25 33.7998 6.71637 33.3333 7.29167 33.3333H42.7083C43.2835 33.3333 43.75 33.7998 43.75 34.375C43.75 34.9502 43.2835 35.4167 42.7083 35.4167H7.29167Z" fill="white"/>
</g>
</svg>
