<svg version="1.1" id="Layer_1" xmlns="http://www.w3.org/2000/svg" xmlns:xlink="http://www.w3.org/1999/xlink" x="0px" y="0px"
	 width="100%" viewBox="0 0 634 200" enable-background="new 0 0 634 200" xml:space="preserve">
<path fill="#000000" opacity="1.000000" stroke="none" 
	d="
M635.000000,100.000000 
	C635.000000,133.641617 635.000000,167.283218 635.000000,201.000000 
	C473.645233,201.000000 312.290466,201.000000 150.140625,200.664886 
	C149.190765,198.693741 149.181656,195.675247 148.858078,195.641144 
	C146.349808,195.376862 143.780838,195.688751 141.185577,195.824661 
	C140.620026,187.982468 135.143860,181.687958 127.533073,182.548126 
	C131.418991,185.412033 127.811699,194.452835 136.841934,192.661926 
	C133.684586,192.661926 130.527237,192.661926 127.670334,192.661926 
	C127.670334,174.154648 127.670334,155.742889 127.670334,136.744354 
	C134.649994,143.109100 142.540527,142.044235 145.007355,137.372375 
	C147.084076,133.439270 147.248154,129.691086 140.204300,125.513054 
	C146.119186,121.672119 147.410629,119.251663 144.801346,115.683403 
	C143.424850,113.800980 141.148315,111.389671 139.223923,111.340508 
	C135.142807,111.236244 131.026138,112.523018 127.000443,113.226082 
	C127.000443,99.932549 126.549706,85.424164 127.127335,70.956833 
	C127.703926,56.515347 121.681938,46.002548 109.600021,39.085396 
	C100.451103,33.847450 90.687408,29.685247 81.211037,25.016434 
	C77.007545,22.945456 76.435165,17.631386 79.963318,14.494230 
	C81.089401,13.492942 82.804840,12.265277 82.841682,11.096778 
	C82.947395,7.743363 82.331978,4.367214 82.000000,1.000000 
	C266.333344,1.000000 450.666687,1.000000 635.000000,1.000000 
	C635.000000,29.769972 635.000000,58.417133 634.713928,87.825996 
	C630.926086,84.888313 626.984924,82.452454 621.523682,82.856544 
	C620.106934,82.961372 618.557922,81.279137 617.069702,80.417740 
	C618.599365,79.278412 620.005859,77.451859 621.685791,77.150627 
	C624.678650,76.613983 627.836853,76.999748 630.663269,76.999748 
	C630.663269,74.268875 630.663269,72.202271 630.663269,70.000450 
	C629.672974,70.000450 629.019592,70.000465 628.366211,70.000450 
	C625.372070,70.000366 622.377380,69.962692 619.383911,70.008850 
	C614.736145,70.080528 610.609924,73.464127 610.005859,77.634514 
	C609.037231,84.321526 610.907166,88.339493 616.093506,89.923660 
	C618.377197,90.621223 620.970642,90.340462 623.219788,91.103813 
	C624.971863,91.698448 626.408936,93.221222 627.986023,94.331497 
	C626.357727,95.554482 624.841980,97.589760 623.078064,97.834183 
	C619.207153,98.370598 615.210632,98.000458 611.240112,98.000458 
	C611.240112,100.556587 611.240112,102.623207 611.240112,105.095047 
	C619.438904,104.103958 628.373901,108.017311 634.642944,99.651367 
	C634.761963,99.767578 634.880981,99.883797 635.000000,100.000000 
M180.957474,100.340576 
	C180.267914,101.746391 179.578354,103.152206 178.741318,104.858673 
	C182.038483,104.858673 184.839111,104.858673 187.558762,104.858673 
	C188.072998,103.896515 188.825089,103.087357 188.930328,102.201363 
	C190.201080,91.504112 197.502472,91.049927 205.845963,91.928619 
	C208.231445,92.179848 209.295425,92.580513 210.237381,95.238762 
	C214.014221,105.897018 214.229492,105.820732 223.178314,104.472305 
	C215.894165,86.832359 208.644806,69.276703 201.059631,50.907780 
	C194.049469,67.898872 187.524582,83.713737 180.957474,100.340576 
M406.000336,72.683006 
	C406.000336,83.430832 406.000336,94.178650 406.000336,104.999352 
	C411.208038,104.999352 415.728699,104.697128 420.194641,105.062714 
	C429.294312,105.807617 436.579224,101.500427 438.651184,90.555176 
	C440.509399,80.739403 434.656219,71.480301 424.284912,70.116386 
	C419.206451,69.448532 413.964935,69.915115 408.803802,70.077904 
	C407.854462,70.107849 406.936829,71.144623 406.000336,72.683006 
M309.037048,166.229095 
	C307.341614,156.596954 305.646210,146.964813 303.698364,135.898666 
	C299.341003,144.400513 295.606140,151.687759 291.766113,159.180161 
	C287.584229,151.450760 283.717072,144.303116 279.440155,136.398117 
	C277.024628,149.476517 274.793335,161.557236 272.514801,173.893921 
	C275.545441,173.893921 277.508179,173.893921 279.605103,173.893921 
	C280.676941,168.919022 281.733368,164.015610 282.994141,158.163757 
	C286.070862,164.163879 288.611542,169.118668 291.464447,174.682266 
	C294.497406,168.913788 297.170441,163.829895 300.274139,157.926895 
	C301.423523,164.090195 302.333496,168.969879 303.232605,173.791260 
	C305.981232,173.791260 308.425354,173.791260 310.914551,173.791260 
	C310.406464,171.382065 309.942993,169.184296 309.037048,166.229095 
M235.999435,100.493286 
	C235.999435,98.703247 235.999435,96.913216 235.999435,95.146591 
	C244.138321,94.842186 246.353561,96.783607 247.459854,104.764481 
	C249.888229,104.764481 252.317947,104.764481 256.185455,104.764481 
	C254.448730,100.039268 252.959351,95.987000 251.173386,91.127792 
	C250.964386,91.304222 251.983383,90.664314 252.719696,89.787132 
	C257.842987,83.683617 254.381180,71.159119 246.930466,70.198555 
	C240.771881,69.404579 234.429504,70.036301 228.301651,70.036301 
	C228.301651,82.029327 228.301651,93.442566 228.301651,105.550491 
	C230.892776,103.327385 236.280792,108.503960 235.999435,100.493286 
M503.358765,69.999840 
	C499.283813,69.999840 495.208832,69.999840 491.280762,69.999840 
	C491.280762,82.038589 491.280762,93.423317 491.280762,104.717201 
	C493.972198,104.717201 496.375397,104.717201 499.117249,104.717201 
	C499.117249,101.343506 499.117249,98.249275 499.117249,95.180687 
	C507.113617,94.798874 509.470764,96.858490 510.377563,104.811508 
	C512.793640,104.811508 515.223755,104.811508 519.189453,104.811508 
	C517.365967,100.155594 515.809814,96.182243 514.023438,91.621254 
	C517.301331,88.217667 519.460449,83.428108 517.121643,77.270370 
	C514.801575,71.161880 510.148865,69.650230 503.358765,69.999840 
M200.999603,166.436615 
	C200.999603,154.015594 200.999603,141.594574 200.999603,128.789001 
	C205.691223,128.789001 209.775284,128.789001 213.682800,128.789001 
	C213.682800,125.980835 213.682800,123.574791 213.682800,121.302124 
	C202.294235,121.302124 191.217834,121.302124 180.312103,121.302124 
	C180.312103,124.020889 180.312103,126.429588 180.312103,129.224991 
	C184.364243,129.224991 188.106415,129.224991 192.001129,129.224991 
	C192.001129,142.775208 192.152481,155.921829 191.911499,169.061234 
	C191.836472,173.152252 193.257263,174.552490 197.111267,174.015564 
	C198.350632,173.842896 199.611725,173.826111 200.999603,173.728378 
	C200.999603,171.387131 200.999603,169.402832 200.999603,166.436615 
M383.517700,90.011681 
	C387.971588,95.431541 392.425476,100.851402 397.709412,107.281342 
	C397.709412,93.966248 397.709412,82.139854 397.709412,70.232559 
	C395.120483,70.232559 392.720428,70.232559 389.926910,70.232559 
	C389.926910,75.485840 389.926910,80.522057 389.926910,86.478851 
	C385.886261,81.669579 382.366394,77.689789 379.092102,73.517296 
	C376.433899,70.129860 373.255463,69.156120 369.245178,70.391212 
	C369.245178,81.926727 369.245178,93.328598 369.245178,104.758423 
	C371.562531,104.758423 373.629395,104.758423 376.089539,104.758423 
	C376.089539,97.163406 376.089539,89.799515 376.089539,81.199799 
	C378.911011,84.589005 380.955139,87.044456 383.517700,90.011681 
M380.185944,138.755066 
	C377.885681,138.447495 375.585419,138.139908 373.270020,137.830322 
	C373.270020,150.304398 373.270020,162.049850 373.270020,173.728882 
	C375.616730,173.728882 377.687225,173.728882 380.159607,173.728882 
	C380.159607,165.782272 380.159607,158.099884 380.159607,149.835022 
	C387.192963,158.228516 393.758636,166.063873 400.701050,174.348862 
	C400.701050,161.634247 400.701050,149.884262 400.701050,138.308258 
	C398.326538,138.308258 396.257019,138.308258 393.758911,138.308258 
	C393.758911,143.627731 393.758911,148.648209 393.758911,154.665039 
	C388.985718,148.982574 384.900116,144.118698 380.185944,138.755066 
M365.234985,151.058304 
	C361.282532,151.058304 357.330078,151.058304 353.364136,151.058304 
	C353.364136,149.111420 353.364136,147.610855 353.364136,145.721985 
	C357.799164,145.721985 361.871490,145.721985 365.655579,145.721985 
	C365.655579,142.915573 365.655579,140.511475 365.655579,138.327850 
	C358.581604,138.327850 351.855713,138.327850 345.287994,138.327850 
	C345.287994,150.373489 345.287994,162.089493 345.287994,173.744385 
	C352.644897,173.744385 359.712402,173.744385 366.743774,173.744385 
	C366.743774,171.076843 366.743774,168.674332 366.743774,165.898438 
	C362.084167,165.898438 357.667542,165.898438 353.237915,165.898438 
	C353.237915,163.440765 353.237915,161.374435 353.237915,158.938690 
	C357.543884,158.938690 361.628448,158.938690 365.933441,158.938690 
	C365.933441,156.275375 365.933441,153.987152 365.234985,151.058304 
M259.574371,159.000397 
	C262.006287,159.000397 264.438232,159.000397 266.679138,159.000397 
	C266.679138,155.966431 266.679138,153.557510 266.679138,150.783676 
	C262.598267,150.783676 258.837616,150.783676 254.891037,150.783676 
	C255.032974,148.975098 255.143433,147.567429 255.282364,145.797180 
	C259.709167,145.797180 263.796082,145.797180 267.686859,145.797180 
	C267.686859,142.985138 267.686859,140.576080 267.686859,138.318588 
	C260.630066,138.318588 253.889923,138.318588 247.323700,138.318588 
	C247.323700,150.379684 247.323700,162.119720 247.323700,173.683472 
	C254.401886,173.683472 261.153442,173.683472 267.668091,173.683472 
	C267.668091,170.947754 267.668091,168.537659 267.668091,165.753540 
	C263.249573,165.753540 259.162842,165.753540 255.138641,165.753540 
	C255.138641,163.395477 255.138641,161.435089 255.138641,159.159286 
	C256.387329,159.102417 257.507141,159.051407 259.574371,159.000397 
M307.994263,75.378693 
	C307.994263,73.633713 307.994263,71.888733 307.994263,70.000031 
	C305.515503,70.000031 303.687286,69.894028 301.875854,70.023285 
	C298.638214,70.254318 295.169586,69.986000 292.234985,71.089691 
	C287.727295,72.785019 285.805817,78.176949 287.072723,83.161880 
	C288.145905,87.384384 293.449646,90.926971 298.787354,91.003197 
	C301.457031,91.041321 305.058044,90.170525 304.871277,94.422134 
	C304.703094,98.251091 301.363617,98.063957 298.478424,98.013046 
	C295.372040,97.958229 292.263947,98.000656 289.298157,98.000656 
	C289.298157,100.652855 289.298157,102.721916 289.298157,104.999702 
	C294.240082,104.999702 298.891968,105.144386 303.531128,104.963081 
	C309.331604,104.736397 314.172272,97.489334 312.435120,91.896507 
	C310.413391,85.387489 307.382446,83.192802 300.379425,82.979225 
	C298.093353,82.909515 294.860870,84.001450 295.035370,79.849609 
	C295.207336,75.758751 298.473480,77.283821 300.679169,77.014496 
	C303.090271,76.720078 305.515839,76.543694 307.994263,75.378693 
M539.919373,99.018829 
	C541.276428,100.845726 542.633423,102.672623 544.176147,104.749466 
	C546.330750,104.749466 549.072083,104.749466 552.149536,104.749466 
	C546.750977,92.557449 541.502808,80.705002 535.913452,68.081924 
	C530.356323,80.768730 525.183105,92.578957 519.991516,104.431374 
	C528.039978,105.808067 528.373230,105.639122 530.647949,99.001335 
	C533.398071,99.001335 536.213501,99.001335 539.919373,99.018829 
M354.962555,81.641129 
	C352.958618,77.445160 350.954681,73.249191 348.634094,68.390205 
	C343.081421,81.070259 337.953491,92.780411 332.744019,104.676743 
	C337.466003,105.305588 341.872131,106.287086 342.989319,100.144997 
	C346.910278,100.219116 350.831238,100.293228 354.752197,100.367348 
	C355.524689,107.640121 360.819977,104.206009 365.104065,105.247223 
	C361.504700,97.085052 358.272522,89.755463 354.962555,81.641129 
M323.955475,139.018753 
	C318.480682,142.986542 314.411652,147.963760 314.049896,154.964310 
	C313.356812,168.375549 324.526001,176.614929 338.895325,173.411072 
	C338.895325,170.798874 338.895325,168.163071 338.895325,165.164413 
	C333.395996,168.044617 328.179749,167.528809 324.506073,162.792969 
	C321.667908,159.134125 321.274658,154.681931 323.910400,150.219208 
	C327.535034,144.082108 332.879150,144.372070 338.828888,146.077789 
	C338.828888,143.238449 338.828888,140.799225 338.828888,138.405411 
	C331.919495,136.402344 331.379120,136.427048 323.955475,139.018753 
M460.000061,85.737747 
	C460.000275,100.946968 467.685272,107.408691 483.814514,105.584457 
	C483.814514,102.877922 483.814514,100.146622 483.814514,97.234352 
	C478.330597,99.892334 473.645142,98.730949 469.915344,94.291260 
	C467.110046,90.952049 467.164001,84.490448 470.127380,80.680901 
	C473.696106,76.093224 478.623230,76.291069 483.998566,78.042809 
	C483.998566,75.862083 484.416046,73.916840 483.867126,72.299599 
	C483.424347,70.995018 481.939484,69.323448 480.703827,69.122017 
	C470.271667,67.421440 460.528687,75.457924 460.000061,85.737747 
M568.589417,83.999687 
	C567.140137,83.934624 565.690857,83.869560 564.253418,83.805031 
	C564.253418,81.419868 564.253418,79.349770 564.253418,76.892059 
	C568.583801,76.892059 572.677185,76.892059 576.744934,76.892059 
	C576.744934,74.417648 576.744934,72.348274 576.744934,70.262497 
	C569.748657,70.262497 563.010742,70.262497 556.259277,70.262497 
	C556.259277,81.935219 556.259277,93.343719 556.259277,104.736679 
	C558.931885,104.736679 561.335754,104.736679 564.132751,104.736679 
	C564.132751,100.068344 564.132751,95.649353 564.132751,90.863510 
	C568.616272,90.863510 572.707214,90.863510 576.732178,90.863510 
	C576.732178,88.391716 576.732178,86.320671 576.732178,83.999687 
	C574.159912,83.999687 571.852905,83.999687 568.589417,83.999687 
M219.000809,161.490250 
	C219.000809,165.593628 219.000809,169.697021 219.000809,173.735962 
	C226.637756,173.735962 233.719177,173.735962 240.726471,173.735962 
	C240.726471,171.054077 240.726471,168.646515 240.726471,165.847351 
	C236.047165,165.847351 231.629639,165.847351 226.843719,165.847351 
	C226.843719,156.362778 226.843719,147.278732 226.843719,138.284058 
	C224.033661,138.284058 221.628128,138.284058 219.000809,138.284058 
	C219.000809,145.874664 219.000809,153.183517 219.000809,161.490250 
M602.450195,77.000320 
	C609.040527,77.256432 604.834351,72.680016 605.995850,70.267532 
	C597.378784,70.267532 589.296387,70.267532 581.273438,70.267532 
	C581.273438,72.612968 581.273438,74.685997 581.273438,77.153946 
	C584.285217,77.153946 587.029480,77.153946 590.152588,77.153946 
	C590.152588,86.635544 590.152588,95.721581 590.152588,104.713333 
	C592.968872,104.713333 595.374878,104.713333 597.999756,104.713333 
	C597.999756,96.451553 598.124268,88.470757 597.933044,80.497536 
	C597.864929,77.659073 598.695984,76.512360 602.450195,77.000320 
M275.000275,85.543488 
	C275.000275,82.764717 275.000275,79.985947 275.000275,77.153099 
	C277.949219,77.022644 280.369019,76.915596 282.729034,76.811188 
	C282.729034,74.382973 282.729034,72.314934 282.729034,70.265778 
	C274.708496,70.265778 266.961945,70.265778 259.268616,70.265778 
	C259.268616,72.616554 259.268616,74.687485 259.268616,77.148117 
	C261.938171,77.148117 264.353973,77.148117 267.139099,77.148117 
	C267.139099,86.620201 267.139099,95.703117 267.139099,104.724976 
	C269.952393,104.724976 272.355530,104.724976 275.000275,104.724976 
	C275.000275,98.480911 275.000275,92.507767 275.000275,85.543488 
z"/>
<path fill="#F3F3FE" opacity="1.000000" stroke="none" 
	d="
M81.666672,1.000000 
	C82.331978,4.367214 82.947395,7.743363 82.841682,11.096778 
	C82.804840,12.265277 81.089401,13.492942 79.963318,14.494230 
	C76.435165,17.631386 77.007545,22.945456 81.211037,25.016434 
	C90.687408,29.685247 100.451103,33.847450 109.600021,39.085396 
	C121.681938,46.002548 127.703926,56.515347 127.127335,70.956833 
	C126.549706,85.424164 127.000443,99.932549 127.000443,113.226082 
	C131.026138,112.523018 135.142807,111.236244 139.223923,111.340508 
	C141.148315,111.389671 143.424850,113.800980 144.801346,115.683403 
	C147.410629,119.251663 146.119186,121.672119 140.204300,125.513054 
	C147.248154,129.691086 147.084076,133.439270 145.007355,137.372375 
	C142.540527,142.044235 134.649994,143.109100 127.670334,136.744354 
	C127.670334,155.742889 127.670334,174.154648 127.670334,192.661926 
	C130.527237,192.661926 133.684586,192.661926 136.841934,192.661926 
	C127.811699,194.452835 131.418991,185.412033 127.533073,182.548126 
	C135.143860,181.687958 140.620026,187.982468 141.185577,195.824661 
	C143.780838,195.688751 146.349808,195.376862 148.858078,195.641144 
	C149.181656,195.675247 149.190765,198.693741 149.672760,200.664886 
	C139.645767,201.000000 129.291550,201.000000 118.468643,200.531342 
	C117.999969,180.752686 118.104637,161.441696 117.919281,142.133484 
	C117.877922,137.825745 118.307976,134.285767 122.584419,133.037827 
	C120.275009,130.211334 118.043205,127.479820 115.843193,124.787231 
	C117.868340,123.058960 120.460320,120.846947 123.285233,118.436142 
	C119.093994,117.041595 117.769897,114.733009 117.882446,110.644508 
	C118.212105,98.668030 117.686890,86.665726 118.104408,74.694733 
	C118.407349,66.008728 116.462685,58.303822 110.917206,51.638287 
	C104.204056,43.569237 95.514885,38.684864 85.246155,35.727753 
	C84.222954,41.629200 89.111671,40.860664 91.554787,41.882923 
	C104.568016,47.327957 114.504166,56.992775 114.231186,73.657341 
	C113.536018,116.094765 113.999947,158.551178 114.000000,201.000000 
	C106.979050,201.000000 99.958107,201.000000 92.469467,200.531342 
	C92.001770,170.254852 92.001770,140.447021 92.001770,110.639198 
	C91.667847,110.640121 91.333923,110.641045 91.000000,110.641968 
	C91.000000,140.761307 91.000000,170.880661 91.000000,201.000000 
	C77.312439,201.000000 63.624878,201.000000 49.468983,200.532608 
	C49.495090,154.772705 49.989529,109.480179 50.480663,64.490814 
	C53.859192,66.568596 57.254299,68.656563 59.913963,70.292244 
	C59.272392,72.692039 58.091320,75.069916 58.082165,77.452278 
	C57.959270,109.441582 57.997723,141.431503 58.007351,173.421280 
	C58.007748,174.738525 58.118389,176.055740 58.177666,177.372971 
	C58.478149,177.361801 58.778633,177.350647 59.079117,177.339493 
	C59.079117,142.968384 59.079117,108.597290 59.079117,74.226196 
	C59.576481,73.874969 60.073849,73.523750 60.571213,73.172531 
	C61.201180,74.345383 61.831150,75.518242 62.477409,76.721436 
	C69.331596,68.002892 64.472137,58.293930 66.314560,48.427734 
	C52.900867,54.348335 46.754307,63.159412 46.873077,77.040726 
	C47.226585,118.357826 46.999943,159.679886 47.000000,201.000000 
	C31.666651,201.000000 16.333303,201.000000 1.000000,201.000000 
	C1.000000,199.299988 1.000000,197.649460 1.338774,195.834412 
	C3.940438,195.669861 6.203328,195.669861 9.095336,195.669861 
	C9.030032,195.784622 9.827085,194.991837 9.920012,194.123688 
	C10.611005,187.668259 13.638885,183.629684 20.463709,182.749634 
	C21.438940,182.623871 22.875242,180.537338 22.889841,179.343506 
	C23.060261,165.407318 22.999006,151.468307 22.999006,137.327896 
	C15.887064,142.402176 10.268742,142.505157 6.304611,137.832642 
	C3.710157,134.774567 4.549853,131.130722 9.131699,126.161110 
	C7.497297,122.401016 2.060648,119.142967 7.333799,114.078117 
	C12.508046,109.108261 17.575279,110.566185 23.000696,113.903427 
	C23.000696,99.030220 22.883875,84.545403 23.085238,70.065010 
	C23.133802,66.572548 24.015127,63.038090 24.893091,59.620461 
	C27.925230,47.817322 36.610359,40.709949 46.589622,35.258232 
	C53.879700,31.275629 61.881939,28.615934 69.453407,25.121046 
	C73.308281,23.341686 73.919548,16.912228 70.415558,14.885691 
	C66.248886,12.475897 65.610954,5.005502 69.000000,1.000000 
	C69.000000,1.000000 69.500000,1.000000 69.746254,1.394118 
	C68.137283,4.765952 68.834091,7.657659 71.291763,9.566541 
	C72.736198,10.688442 75.519524,11.388735 77.114639,10.769408 
	C81.831726,8.937931 81.593613,5.030916 80.000000,1.000000 
	C80.444443,1.000000 80.888893,1.000000 81.666672,1.000000 
M33.000828,138.992020 
	C33.000828,156.935471 33.000828,174.878906 33.000828,192.728363 
	C34.940510,192.728363 36.343578,192.728363 37.999767,192.728363 
	C37.999767,190.817139 37.999767,189.174026 37.999767,187.530930 
	C37.999798,147.873276 37.933037,108.215416 38.054604,68.558136 
	C38.079773,60.347134 41.244446,53.348598 48.528168,48.936150 
	C53.310226,46.039196 58.348022,43.557678 63.319416,40.983032 
	C65.534164,39.836033 67.008057,38.601971 65.397316,35.962852 
	C54.193848,38.157730 45.898632,44.564991 38.939713,52.732124 
	C35.024509,57.327091 32.751198,62.740051 32.910736,69.192368 
	C33.219547,81.681900 32.922451,94.185204 33.041752,106.681229 
	C33.086235,111.340210 33.588795,115.993469 28.583742,118.800247 
	C30.963408,121.387268 34.832150,123.864235 34.546764,125.692894 
	C34.131069,128.356613 30.725468,130.553711 28.688910,132.843750 
	C29.875628,134.293640 31.437843,136.202316 33.000828,138.992020 
M104.999771,105.492645 
	C104.999741,95.347336 104.836334,85.198730 105.041115,75.057556 
	C105.296104,62.429420 96.462135,51.671909 84.622841,48.464077 
	C86.723404,57.861107 81.690239,67.978493 88.364281,76.621017 
	C89.126625,75.743835 89.793793,74.976151 91.205383,73.351913 
	C91.205383,77.159492 91.205383,79.822044 91.205383,82.484604 
	C91.678970,82.407822 92.152557,82.331039 92.626137,82.254257 
	C91.834663,78.313744 91.043182,74.373222 90.244743,70.398026 
	C92.761665,68.888451 96.258827,66.790955 100.000542,64.546791 
	C100.000542,80.245026 100.165840,95.977997 99.886475,111.703064 
	C99.814964,115.728050 101.061943,118.191628 104.999771,120.260490 
	C104.999771,115.350098 104.999771,110.918648 104.999771,105.492645 
M101.000877,180.488235 
	C101.000679,183.651047 101.169899,186.825485 100.954063,189.973511 
	C100.724388,193.323395 102.299736,193.414124 104.740578,192.666519 
	C104.740578,171.138718 104.740578,149.799713 104.740578,128.397156 
	C99.267349,130.879013 100.691109,135.097031 100.836975,139.544571 
	C101.273308,152.847473 100.998283,166.173691 101.000877,180.488235 
M76.479218,195.001450 
	C78.901451,195.001450 81.323685,195.001450 83.999153,195.001450 
	C83.999153,192.863129 84.223801,191.199188 83.945175,189.624298 
	C83.552208,187.403152 82.786705,185.247940 82.180481,183.064529 
	C81.451958,185.131805 80.710892,187.194809 80.005150,189.269821 
	C79.858658,189.700546 79.843185,190.175842 79.711670,190.964249 
	C75.591423,190.964249 71.520195,190.964249 67.035233,190.964249 
	C67.113968,192.498459 67.173637,193.661133 67.242424,195.001450 
	C70.250191,195.001450 72.879837,195.001450 76.479218,195.001450 
z"/>
<path fill="#000000" opacity="1.000000" stroke="none" 
	d="
M68.531342,1.000000 
	C65.610954,5.005502 66.248886,12.475897 70.415558,14.885691 
	C73.919548,16.912228 73.308281,23.341686 69.453407,25.121046 
	C61.881939,28.615934 53.879700,31.275629 46.589622,35.258232 
	C36.610359,40.709949 27.925230,47.817322 24.893091,59.620461 
	C24.015127,63.038090 23.133802,66.572548 23.085238,70.065010 
	C22.883875,84.545403 23.000696,99.030220 23.000696,113.903427 
	C17.575279,110.566185 12.508046,109.108261 7.333799,114.078117 
	C2.060648,119.142967 7.497297,122.401016 9.131699,126.161110 
	C4.549853,131.130722 3.710157,134.774567 6.304611,137.832642 
	C10.268742,142.505157 15.887064,142.402176 22.999006,137.327896 
	C22.999006,151.468307 23.060261,165.407318 22.889841,179.343506 
	C22.875242,180.537338 21.438940,182.623871 20.463709,182.749634 
	C13.638885,183.629684 10.611005,187.668259 9.920012,194.123688 
	C9.827085,194.991837 9.030032,195.784622 9.095336,195.669861 
	C6.203328,195.669861 3.940438,195.669861 1.338774,195.334930 
	C1.000000,130.441467 1.000000,65.882927 1.000000,1.000000 
	C23.353182,1.000000 45.707932,1.000000 68.531342,1.000000 
M19.997683,169.343964 
	C19.244022,167.986938 18.490360,166.629898 17.736698,165.272873 
	C16.555054,166.003937 14.772017,166.502335 14.372215,167.535858 
	C14.019512,168.447617 14.949928,170.735428 15.782886,171.014282 
	C16.951529,171.405502 18.554634,170.498917 19.997683,169.343964 
M18.263508,178.960739 
	C18.745476,177.413727 19.472467,175.876572 19.535303,174.312714 
	C19.550806,173.926865 17.277020,172.931366 16.291939,173.174301 
	C15.378660,173.399536 13.969520,175.370026 14.193928,175.762192 
	C14.925141,177.040039 16.303782,177.947388 18.263508,178.960739 
z"/>
<path fill="#000000" opacity="1.000000" stroke="none" 
	d="
M47.333332,201.000000 
	C46.999943,159.679886 47.226585,118.357826 46.873077,77.040726 
	C46.754307,63.159412 52.900867,54.348335 66.314560,48.427734 
	C64.472137,58.293930 69.331596,68.002892 62.477409,76.721436 
	C61.831150,75.518242 61.201180,74.345383 60.571213,73.172531 
	C60.073849,73.523750 59.576481,73.874969 59.079117,74.226196 
	C59.079117,108.597290 59.079117,142.968384 59.079117,177.339493 
	C58.778633,177.350647 58.478149,177.361801 58.177666,177.372971 
	C58.118389,176.055740 58.007748,174.738525 58.007351,173.421280 
	C57.997723,141.431503 57.959270,109.441582 58.082165,77.452278 
	C58.091320,75.069916 59.272392,72.692039 59.913963,70.292244 
	C57.254299,68.656563 53.859192,66.568596 50.480663,64.490814 
	C49.989529,109.480179 49.495090,154.772705 49.000324,200.532608 
	C48.555553,201.000000 48.111111,201.000000 47.333332,201.000000 
z"/>
<path fill="#000000" opacity="1.000000" stroke="none" 
	d="
M114.399994,201.000000 
	C113.999947,158.551178 113.536018,116.094765 114.231186,73.657341 
	C114.504166,56.992775 104.568016,47.327957 91.554787,41.882923 
	C89.111671,40.860664 84.222954,41.629200 85.246155,35.727753 
	C95.514885,38.684864 104.204056,43.569237 110.917206,51.638287 
	C116.462685,58.303822 118.407349,66.008728 118.104408,74.694733 
	C117.686890,86.665726 118.212105,98.668030 117.882446,110.644508 
	C117.769897,114.733009 119.093994,117.041595 123.285233,118.436142 
	C120.460320,120.846947 117.868340,123.058960 115.843193,124.787231 
	C118.043205,127.479820 120.275009,130.211334 122.584419,133.037827 
	C118.307976,134.285767 117.877922,137.825745 117.919281,142.133484 
	C118.104637,161.441696 117.999969,180.752686 117.999985,200.531342 
	C116.933327,201.000000 115.866661,201.000000 114.399994,201.000000 
z"/>
<path fill="#F3F3FE" opacity="1.000000" stroke="none" 
	d="
M635.000000,99.539368 
	C634.880981,99.883797 634.761963,99.767578 634.642944,99.651367 
	C628.373901,108.017311 619.438904,104.103958 611.240112,105.095047 
	C611.240112,102.623207 611.240112,100.556587 611.240112,98.000458 
	C615.210632,98.000458 619.207153,98.370598 623.078064,97.834183 
	C624.841980,97.589760 626.357727,95.554482 627.986023,94.331497 
	C626.408936,93.221222 624.971863,91.698448 623.219788,91.103813 
	C620.970642,90.340462 618.377197,90.621223 616.093506,89.923660 
	C610.907166,88.339493 609.037231,84.321526 610.005859,77.634514 
	C610.609924,73.464127 614.736145,70.080528 619.383911,70.008850 
	C622.377380,69.962692 625.372070,70.000366 628.366211,70.000450 
	C629.019592,70.000465 629.672974,70.000450 630.663269,70.000450 
	C630.663269,72.202271 630.663269,74.268875 630.663269,76.999748 
	C627.836853,76.999748 624.678650,76.613983 621.685791,77.150627 
	C620.005859,77.451859 618.599365,79.278412 617.069702,80.417740 
	C618.557922,81.279137 620.106934,82.961372 621.523682,82.856544 
	C626.984924,82.452454 630.926086,84.888313 634.713928,88.293854 
	C635.000000,91.692909 635.000000,95.385818 635.000000,99.539368 
z"/>
<path fill="#000000" opacity="1.000000" stroke="none" 
	d="
M79.545891,1.000000 
	C81.593613,5.030916 81.831726,8.937931 77.114639,10.769408 
	C75.519524,11.388735 72.736198,10.688442 71.291763,9.566541 
	C68.834091,7.657659 68.137283,4.765952 69.996254,1.394118 
	C73.030594,1.000000 76.061188,1.000000 79.545891,1.000000 
z"/>
<path fill="#000000" opacity="1.000000" stroke="none" 
	d="
M91.250000,201.000000 
	C91.000000,170.880661 91.000000,140.761307 91.000000,110.641968 
	C91.333923,110.641045 91.667847,110.640121 92.001770,110.639198 
	C92.001770,140.447021 92.001770,170.254852 92.000885,200.531342 
	C92.000000,201.000000 91.500000,201.000000 91.250000,201.000000 
z"/>
<path fill="#F3F3FE" opacity="1.000000" stroke="none" 
	d="
M180.978592,99.934586 
	C187.524582,83.713737 194.049469,67.898872 201.059631,50.907780 
	C208.644806,69.276703 215.894165,86.832359 223.178314,104.472305 
	C214.229492,105.820732 214.014221,105.897018 210.237381,95.238762 
	C209.295425,92.580513 208.231445,92.179848 205.845963,91.928619 
	C197.502472,91.049927 190.201080,91.504112 188.930328,102.201363 
	C188.825089,103.087357 188.072998,103.896515 187.558762,104.858673 
	C184.839111,104.858673 182.038483,104.858673 178.741318,104.858673 
	C179.578354,103.152206 180.267914,101.746391 180.978592,99.934586 
M196.231232,84.712463 
	C199.435638,84.712463 202.640030,84.712463 206.259796,84.712463 
	C204.543533,80.459908 202.994385,76.621414 200.993195,71.662857 
	C198.999451,76.583260 197.522339,80.228638 196.231232,84.712463 
z"/>
<path fill="#F3F3FE" opacity="1.000000" stroke="none" 
	d="
M406.002441,72.199837 
	C406.936829,71.144623 407.854462,70.107849 408.803802,70.077904 
	C413.964935,69.915115 419.206451,69.448532 424.284912,70.116386 
	C434.656219,71.480301 440.509399,80.739403 438.651184,90.555176 
	C436.579224,101.500427 429.294312,105.807617 420.194641,105.062714 
	C415.728699,104.697128 411.208038,104.999352 406.000336,104.999352 
	C406.000336,94.178650 406.000336,83.430832 406.002441,72.199837 
M424.018127,77.998604 
	C420.416321,77.564713 416.814545,77.130821 413.326843,76.710678 
	C413.326843,84.445747 413.326843,91.193588 413.326843,98.916328 
	C417.729156,97.859520 422.061249,97.729630 425.362213,95.818611 
	C430.606079,92.782822 433.368744,85.281158 424.018127,77.998604 
z"/>
<path fill="#F3F3FE" opacity="1.000000" stroke="none" 
	d="
M309.258270,166.607819 
	C309.942993,169.184296 310.406464,171.382065 310.914551,173.791260 
	C308.425354,173.791260 305.981232,173.791260 303.232605,173.791260 
	C302.333496,168.969879 301.423523,164.090195 300.274139,157.926895 
	C297.170441,163.829895 294.497406,168.913788 291.464447,174.682266 
	C288.611542,169.118668 286.070862,164.163879 282.994141,158.163757 
	C281.733368,164.015610 280.676941,168.919022 279.605103,173.893921 
	C277.508179,173.893921 275.545441,173.893921 272.514801,173.893921 
	C274.793335,161.557236 277.024628,149.476517 279.440155,136.398117 
	C283.717072,144.303116 287.584229,151.450760 291.766113,159.180161 
	C295.606140,151.687759 299.341003,144.400513 303.698364,135.898666 
	C305.646210,146.964813 307.341614,156.596954 309.258270,166.607819 
z"/>
<path fill="#F3F3FE" opacity="1.000000" stroke="none" 
	d="
M235.999390,100.959984 
	C236.280792,108.503960 230.892776,103.327385 228.301651,105.550491 
	C228.301651,93.442566 228.301651,82.029327 228.301651,70.036301 
	C234.429504,70.036301 240.771881,69.404579 246.930466,70.198555 
	C254.381180,71.159119 257.842987,83.683617 252.719696,89.787132 
	C251.983383,90.664314 250.964386,91.304222 251.173386,91.127792 
	C252.959351,95.987000 254.448730,100.039268 256.185455,104.764481 
	C252.317947,104.764481 249.888229,104.764481 247.459854,104.764481 
	C246.353561,96.783607 244.138321,94.842186 235.999435,95.146591 
	C235.999435,96.913216 235.999435,98.703247 235.999390,100.959984 
M244.881058,86.639648 
	C246.727341,84.543465 248.224075,81.703522 245.825790,79.832268 
	C243.340088,77.892830 239.794815,77.311432 236.254639,75.961258 
	C236.254639,80.984970 236.254639,84.407921 236.254639,88.419586 
	C239.109924,87.900497 241.620667,87.444046 244.881058,86.639648 
z"/>
<path fill="#F3F3FE" opacity="1.000000" stroke="none" 
	d="
M503.832550,69.999817 
	C510.148865,69.650230 514.801575,71.161880 517.121643,77.270370 
	C519.460449,83.428108 517.301331,88.217667 514.023438,91.621254 
	C515.809814,96.182243 517.365967,100.155594 519.189453,104.811508 
	C515.223755,104.811508 512.793640,104.811508 510.377563,104.811508 
	C509.470764,96.858490 507.113617,94.798874 499.117249,95.180687 
	C499.117249,98.249275 499.117249,101.343506 499.117249,104.717201 
	C496.375397,104.717201 493.972198,104.717201 491.280762,104.717201 
	C491.280762,93.423317 491.280762,82.038589 491.280762,69.999840 
	C495.208832,69.999840 499.283813,69.999840 503.832550,69.999817 
M500.497070,77.006233 
	C499.795105,80.529900 499.093109,84.053558 498.071991,89.179359 
	C502.466644,87.809715 505.582794,87.471062 507.813721,85.886292 
	C508.995178,85.047073 509.596924,80.944611 508.783447,80.233414 
	C506.854431,78.546951 503.924774,78.005020 500.497070,77.006233 
z"/>
<path fill="#F3F3FE" opacity="1.000000" stroke="none" 
	d="
M200.999603,166.927567 
	C200.999603,169.402832 200.999603,171.387131 200.999603,173.728378 
	C199.611725,173.826111 198.350632,173.842896 197.111267,174.015564 
	C193.257263,174.552490 191.836472,173.152252 191.911499,169.061234 
	C192.152481,155.921829 192.001129,142.775208 192.001129,129.224991 
	C188.106415,129.224991 184.364243,129.224991 180.312103,129.224991 
	C180.312103,126.429588 180.312103,124.020889 180.312103,121.302124 
	C191.217834,121.302124 202.294235,121.302124 213.682800,121.302124 
	C213.682800,123.574791 213.682800,125.980835 213.682800,128.789001 
	C209.775284,128.789001 205.691223,128.789001 200.999603,128.789001 
	C200.999603,141.594574 200.999603,154.015594 200.999603,166.927567 
z"/>
<path fill="#F3F3FE" opacity="1.000000" stroke="none" 
	d="
M383.258484,89.755798 
	C380.955139,87.044456 378.911011,84.589005 376.089539,81.199799 
	C376.089539,89.799515 376.089539,97.163406 376.089539,104.758423 
	C373.629395,104.758423 371.562531,104.758423 369.245178,104.758423 
	C369.245178,93.328598 369.245178,81.926727 369.245178,70.391212 
	C373.255463,69.156120 376.433899,70.129860 379.092102,73.517296 
	C382.366394,77.689789 385.886261,81.669579 389.926910,86.478851 
	C389.926910,80.522057 389.926910,75.485840 389.926910,70.232559 
	C392.720428,70.232559 395.120483,70.232559 397.709412,70.232559 
	C397.709412,82.139854 397.709412,93.966248 397.709412,107.281342 
	C392.425476,100.851402 387.971588,95.431541 383.258484,89.755798 
z"/>
<path fill="#F3F3FE" opacity="1.000000" stroke="none" 
	d="
M380.500244,139.004944 
	C384.900116,144.118698 388.985718,148.982574 393.758911,154.665039 
	C393.758911,148.648209 393.758911,143.627731 393.758911,138.308258 
	C396.257019,138.308258 398.326538,138.308258 400.701050,138.308258 
	C400.701050,149.884262 400.701050,161.634247 400.701050,174.348862 
	C393.758636,166.063873 387.192963,158.228516 380.159607,149.835022 
	C380.159607,158.099884 380.159607,165.782272 380.159607,173.728882 
	C377.687225,173.728882 375.616730,173.728882 373.270020,173.728882 
	C373.270020,162.049850 373.270020,150.304398 373.270020,137.830322 
	C375.585419,138.139908 377.885681,138.447495 380.500244,139.004944 
z"/>
<path fill="#F3F3FE" opacity="1.000000" stroke="none" 
	d="
M365.584229,151.378632 
	C365.933441,153.987152 365.933441,156.275375 365.933441,158.938690 
	C361.628448,158.938690 357.543884,158.938690 353.237915,158.938690 
	C353.237915,161.374435 353.237915,163.440765 353.237915,165.898438 
	C357.667542,165.898438 362.084167,165.898438 366.743774,165.898438 
	C366.743774,168.674332 366.743774,171.076843 366.743774,173.744385 
	C359.712402,173.744385 352.644897,173.744385 345.287994,173.744385 
	C345.287994,162.089493 345.287994,150.373489 345.287994,138.327850 
	C351.855713,138.327850 358.581604,138.327850 365.655579,138.327850 
	C365.655579,140.511475 365.655579,142.915573 365.655579,145.721985 
	C361.871490,145.721985 357.799164,145.721985 353.364136,145.721985 
	C353.364136,147.610855 353.364136,149.111420 353.364136,151.058304 
	C357.330078,151.058304 361.282532,151.058304 365.584229,151.378632 
z"/>
<path fill="#F3F3FE" opacity="1.000000" stroke="none" 
	d="
M259.100647,159.000397 
	C257.507141,159.051407 256.387329,159.102417 255.138641,159.159286 
	C255.138641,161.435089 255.138641,163.395477 255.138641,165.753540 
	C259.162842,165.753540 263.249573,165.753540 267.668091,165.753540 
	C267.668091,168.537659 267.668091,170.947754 267.668091,173.683472 
	C261.153442,173.683472 254.401886,173.683472 247.323700,173.683472 
	C247.323700,162.119720 247.323700,150.379684 247.323700,138.318588 
	C253.889923,138.318588 260.630066,138.318588 267.686859,138.318588 
	C267.686859,140.576080 267.686859,142.985138 267.686859,145.797180 
	C263.796082,145.797180 259.709167,145.797180 255.282364,145.797180 
	C255.143433,147.567429 255.032974,148.975098 254.891037,150.783676 
	C258.837616,150.783676 262.598267,150.783676 266.679138,150.783676 
	C266.679138,153.557510 266.679138,155.966431 266.679138,159.000397 
	C264.438232,159.000397 262.006287,159.000397 259.100647,159.000397 
z"/>
<path fill="#F3F3FE" opacity="1.000000" stroke="none" 
	d="
M307.964661,75.847275 
	C305.515839,76.543694 303.090271,76.720078 300.679169,77.014496 
	C298.473480,77.283821 295.207336,75.758751 295.035370,79.849609 
	C294.860870,84.001450 298.093353,82.909515 300.379425,82.979225 
	C307.382446,83.192802 310.413391,85.387489 312.435120,91.896507 
	C314.172272,97.489334 309.331604,104.736397 303.531128,104.963081 
	C298.891968,105.144386 294.240082,104.999702 289.298157,104.999702 
	C289.298157,102.721916 289.298157,100.652855 289.298157,98.000656 
	C292.263947,98.000656 295.372040,97.958229 298.478424,98.013046 
	C301.363617,98.063957 304.703094,98.251091 304.871277,94.422134 
	C305.058044,90.170525 301.457031,91.041321 298.787354,91.003197 
	C293.449646,90.926971 288.145905,87.384384 287.072723,83.161880 
	C285.805817,78.176949 287.727295,72.785019 292.234985,71.089691 
	C295.169586,69.986000 298.638214,70.254318 301.875854,70.023285 
	C303.687286,69.894028 305.515503,70.000031 307.994263,70.000031 
	C307.994263,71.888733 307.994263,73.633713 307.964661,75.847275 
z"/>
<path fill="#F3F3FE" opacity="1.000000" stroke="none" 
	d="
M539.474121,99.010086 
	C536.213501,99.001335 533.398071,99.001335 530.647949,99.001335 
	C528.373230,105.639122 528.039978,105.808067 519.991516,104.431374 
	C525.183105,92.578957 530.356323,80.768730 535.913452,68.081924 
	C541.502808,80.705002 546.750977,92.557449 552.149536,104.749466 
	C549.072083,104.749466 546.330750,104.749466 544.176147,104.749466 
	C542.633423,102.672623 541.276428,100.845726 539.474121,99.010086 
z"/>
<path fill="#F3F3FE" opacity="1.000000" stroke="none" 
	d="
M355.001434,82.033501 
	C358.272522,89.755463 361.504700,97.085052 365.104065,105.247223 
	C360.819977,104.206009 355.524689,107.640121 354.752197,100.367348 
	C350.831238,100.293228 346.910278,100.219116 342.989319,100.144997 
	C341.872131,106.287086 337.466003,105.305588 332.744019,104.676743 
	C337.953491,92.780411 343.081421,81.070259 348.634094,68.390205 
	C350.954681,73.249191 352.958618,77.445160 355.001434,82.033501 
z"/>
<path fill="#F3F3FE" opacity="1.000000" stroke="none" 
	d="
M324.353149,139.007309 
	C331.379120,136.427048 331.919495,136.402344 338.828888,138.405411 
	C338.828888,140.799225 338.828888,143.238449 338.828888,146.077789 
	C332.879150,144.372070 327.535034,144.082108 323.910400,150.219208 
	C321.274658,154.681931 321.667908,159.134125 324.506073,162.792969 
	C328.179749,167.528809 333.395996,168.044617 338.895325,165.164413 
	C338.895325,168.163071 338.895325,170.798874 338.895325,173.411072 
	C324.526001,176.614929 313.356812,168.375549 314.049896,154.964310 
	C314.411652,147.963760 318.480682,142.986542 324.353149,139.007309 
z"/>
<path fill="#F3F3FE" opacity="1.000000" stroke="none" 
	d="
M460.000183,85.291336 
	C460.528687,75.457924 470.271667,67.421440 480.703827,69.122017 
	C481.939484,69.323448 483.424347,70.995018 483.867126,72.299599 
	C484.416046,73.916840 483.998566,75.862083 483.998566,78.042809 
	C478.623230,76.291069 473.696106,76.093224 470.127380,80.680901 
	C467.164001,84.490448 467.110046,90.952049 469.915344,94.291260 
	C473.645142,98.730949 478.330597,99.892334 483.814514,97.234352 
	C483.814514,100.146622 483.814514,102.877922 483.814514,105.584457 
	C467.685272,107.408691 460.000275,100.946968 460.000183,85.291336 
z"/>
<path fill="#F3F3FE" opacity="1.000000" stroke="none" 
	d="
M569.067627,83.999687 
	C571.852905,83.999687 574.159912,83.999687 576.732178,83.999687 
	C576.732178,86.320671 576.732178,88.391716 576.732178,90.863510 
	C572.707214,90.863510 568.616272,90.863510 564.132751,90.863510 
	C564.132751,95.649353 564.132751,100.068344 564.132751,104.736679 
	C561.335754,104.736679 558.931885,104.736679 556.259277,104.736679 
	C556.259277,93.343719 556.259277,81.935219 556.259277,70.262497 
	C563.010742,70.262497 569.748657,70.262497 576.744934,70.262497 
	C576.744934,72.348274 576.744934,74.417648 576.744934,76.892059 
	C572.677185,76.892059 568.583801,76.892059 564.253418,76.892059 
	C564.253418,79.349770 564.253418,81.419868 564.253418,83.805031 
	C565.690857,83.869560 567.140137,83.934624 569.067627,83.999687 
z"/>
<path fill="#F3F3FE" opacity="1.000000" stroke="none" 
	d="
M219.000809,160.991302 
	C219.000809,153.183517 219.000809,145.874664 219.000809,138.284058 
	C221.628128,138.284058 224.033661,138.284058 226.843719,138.284058 
	C226.843719,147.278732 226.843719,156.362778 226.843719,165.847351 
	C231.629639,165.847351 236.047165,165.847351 240.726471,165.847351 
	C240.726471,168.646515 240.726471,171.054077 240.726471,173.735962 
	C233.719177,173.735962 226.637756,173.735962 219.000809,173.735962 
	C219.000809,169.697021 219.000809,165.593628 219.000809,160.991302 
z"/>
<path fill="#F3F3FE" opacity="1.000000" stroke="none" 
	d="
M601.981140,77.000366 
	C598.695984,76.512360 597.864929,77.659073 597.933044,80.497536 
	C598.124268,88.470757 597.999756,96.451553 597.999756,104.713333 
	C595.374878,104.713333 592.968872,104.713333 590.152588,104.713333 
	C590.152588,95.721581 590.152588,86.635544 590.152588,77.153946 
	C587.029480,77.153946 584.285217,77.153946 581.273438,77.153946 
	C581.273438,74.685997 581.273438,72.612968 581.273438,70.267532 
	C589.296387,70.267532 597.378784,70.267532 605.995850,70.267532 
	C604.834351,72.680016 609.040527,77.256432 601.981140,77.000366 
z"/>
<path fill="#F3F3FE" opacity="1.000000" stroke="none" 
	d="
M275.000275,86.039062 
	C275.000275,92.507767 275.000275,98.480911 275.000275,104.724976 
	C272.355530,104.724976 269.952393,104.724976 267.139099,104.724976 
	C267.139099,95.703117 267.139099,86.620201 267.139099,77.148117 
	C264.353973,77.148117 261.938171,77.148117 259.268616,77.148117 
	C259.268616,74.687485 259.268616,72.616554 259.268616,70.265778 
	C266.961945,70.265778 274.708496,70.265778 282.729034,70.265778 
	C282.729034,72.314934 282.729034,74.382973 282.729034,76.811188 
	C280.369019,76.915596 277.949219,77.022644 275.000275,77.153099 
	C275.000275,79.985947 275.000275,82.764717 275.000275,86.039062 
z"/>
<path fill="#000000" opacity="1.000000" stroke="none" 
	d="
M33.000443,138.551498 
	C31.437843,136.202316 29.875628,134.293640 28.688910,132.843750 
	C30.725468,130.553711 34.131069,128.356613 34.546764,125.692894 
	C34.832150,123.864235 30.963408,121.387268 28.583742,118.800247 
	C33.588795,115.993469 33.086235,111.340210 33.041752,106.681229 
	C32.922451,94.185204 33.219547,81.681900 32.910736,69.192368 
	C32.751198,62.740051 35.024509,57.327091 38.939713,52.732124 
	C45.898632,44.564991 54.193848,38.157730 65.397316,35.962852 
	C67.008057,38.601971 65.534164,39.836033 63.319416,40.983032 
	C58.348022,43.557678 53.310226,46.039196 48.528168,48.936150 
	C41.244446,53.348598 38.079773,60.347134 38.054604,68.558136 
	C37.933037,108.215416 37.999798,147.873276 37.999767,187.530930 
	C37.999767,189.174026 37.999767,190.817139 37.999767,192.728363 
	C36.343578,192.728363 34.940510,192.728363 33.000828,192.728363 
	C33.000828,174.878906 33.000828,156.935471 33.000443,138.551498 
z"/>
<path fill="#000000" opacity="1.000000" stroke="none" 
	d="
M104.999771,105.989929 
	C104.999771,110.918648 104.999771,115.350098 104.999771,120.260490 
	C101.061943,118.191628 99.814964,115.728050 99.886475,111.703064 
	C100.165840,95.977997 100.000542,80.245026 100.000542,64.546791 
	C96.258827,66.790955 92.761665,68.888451 90.244743,70.398026 
	C91.043182,74.373222 91.834663,78.313744 92.626137,82.254257 
	C92.152557,82.331039 91.678970,82.407822 91.205383,82.484604 
	C91.205383,79.822044 91.205383,77.159492 91.205383,73.351913 
	C89.793793,74.976151 89.126625,75.743835 88.364281,76.621017 
	C81.690239,67.978493 86.723404,57.861107 84.622841,48.464077 
	C96.462135,51.671909 105.296104,62.429420 105.041115,75.057556 
	C104.836334,85.198730 104.999741,95.347336 104.999771,105.989929 
z"/>
<path fill="#000000" opacity="1.000000" stroke="none" 
	d="
M101.000938,179.989532 
	C100.998283,166.173691 101.273308,152.847473 100.836975,139.544571 
	C100.691109,135.097031 99.267349,130.879013 104.740578,128.397156 
	C104.740578,149.799713 104.740578,171.138718 104.740578,192.666519 
	C102.299736,193.414124 100.724388,193.323395 100.954063,189.973511 
	C101.169899,186.825485 101.000679,183.651047 101.000938,179.989532 
z"/>
<path fill="#000000" opacity="1.000000" stroke="none" 
	d="
M75.994354,195.001450 
	C72.879837,195.001450 70.250191,195.001450 67.242424,195.001450 
	C67.173637,193.661133 67.113968,192.498459 67.035233,190.964249 
	C71.520195,190.964249 75.591423,190.964249 79.711670,190.964249 
	C79.843185,190.175842 79.858658,189.700546 80.005150,189.269821 
	C80.710892,187.194809 81.451958,185.131805 82.180481,183.064529 
	C82.786705,185.247940 83.552208,187.403152 83.945175,189.624298 
	C84.223801,191.199188 83.999153,192.863129 83.999153,195.001450 
	C81.323685,195.001450 78.901451,195.001450 75.994354,195.001450 
z"/>
<path fill="#F3F3FE" opacity="1.000000" stroke="none" 
	d="
M19.984795,169.745697 
	C18.554634,170.498917 16.951529,171.405502 15.782886,171.014282 
	C14.949928,170.735428 14.019512,168.447617 14.372215,167.535858 
	C14.772017,166.502335 16.555054,166.003937 17.736698,165.272873 
	C18.490360,166.629898 19.244022,167.986938 19.984795,169.745697 
z"/>
<path fill="#F3F3FE" opacity="1.000000" stroke="none" 
	d="
M17.848404,178.979019 
	C16.303782,177.947388 14.925141,177.040039 14.193928,175.762192 
	C13.969520,175.370026 15.378660,173.399536 16.291939,173.174301 
	C17.277020,172.931366 19.550806,173.926865 19.535303,174.312714 
	C19.472467,175.876572 18.745476,177.413727 17.848404,178.979019 
z"/>
<path fill="#000000" opacity="1.000000" stroke="none" 
	d="
M196.138229,84.293243 
	C197.522339,80.228638 198.999451,76.583260 200.993195,71.662857 
	C202.994385,76.621414 204.543533,80.459908 206.259796,84.712463 
	C202.640030,84.712463 199.435638,84.712463 196.138229,84.293243 
z"/>
<path fill="#000000" opacity="1.000000" stroke="none" 
	d="
M424.401550,78.128006 
	C433.368744,85.281158 430.606079,92.782822 425.362213,95.818611 
	C422.061249,97.729630 417.729156,97.859520 413.326843,98.916328 
	C413.326843,91.193588 413.326843,84.445747 413.326843,76.710678 
	C416.814545,77.130821 420.416321,77.564713 424.401550,78.128006 
z"/>
<path fill="#000000" opacity="1.000000" stroke="none" 
	d="
M244.506226,86.813622 
	C241.620667,87.444046 239.109924,87.900497 236.254639,88.419586 
	C236.254639,84.407921 236.254639,80.984970 236.254639,75.961258 
	C239.794815,77.311432 243.340088,77.892830 245.825790,79.832268 
	C248.224075,81.703522 246.727341,84.543465 244.506226,86.813622 
z"/>
<path fill="#000000" opacity="1.000000" stroke="none" 
	d="
M500.948303,77.003357 
	C503.924774,78.005020 506.854431,78.546951 508.783447,80.233414 
	C509.596924,80.944611 508.995178,85.047073 507.813721,85.886292 
	C505.582794,87.471062 502.466644,87.809715 498.071991,89.179359 
	C499.093109,84.053558 499.795105,80.529900 500.948303,77.003357 
z"/>
</svg>